<svg width="40" height="40" viewBox="0 0 40 40" fill="none" xmlns="http://www.w3.org/2000/svg">
    <path d="M38.8898 24.122H34.7953V20.4921C35.4252 20.1535 36.0472 19.7992 36.6693 19.4134C37 19.2086 37.1968 18.8543 37.1968 18.4685V11.4921C37.1968 8.23225 34.5433 5.57084 31.2756 5.57084H26.2992V3.33461C26.2992 1.49997 24.8032 0.00390625 22.9685 0.00390625H17.0315C15.1969 0.00390625 13.7008 1.49997 13.7008 3.33461V5.56296H8.72441C5.46457 5.56296 2.80315 8.2165 2.80315 11.4842V18.4606C2.80315 18.8464 3 19.2008 3.33071 19.4055C3.95276 19.7913 4.5748 20.1456 5.20472 20.4842V24.1141H1.11024C0.496063 24.1141 0 24.6102 0 25.2244V31.5157C0 33.9409 1.97638 35.9173 4.40157 35.9173H5.20472V36.4842C5.20472 38.4212 6.77953 39.996 8.71654 39.996H31.2835C33.2205 39.996 34.7953 38.4212 34.7953 36.4842V35.9173H35.5984C38.0236 35.9173 40 33.9409 40 31.5157V25.2244C40 24.6181 39.5039 24.122 38.8898 24.122ZM5.20472 33.7047H4.40157C3.20472 33.7047 2.22835 32.7283 2.22835 31.5315V26.3504H5.20472V33.7047ZM15.9213 3.33461C15.9213 2.72044 16.4173 2.22438 17.0315 2.22438H22.9685C23.5827 2.22438 24.0787 2.72044 24.0787 3.33461V5.56296H15.9213V3.33461ZM31.2835 37.7834H8.71654C8.00787 37.7834 7.4252 37.2008 7.4252 36.4921V21.5866C8.15748 21.9173 8.90551 22.2165 9.64567 22.4842V34.4449C9.64567 35.059 10.1417 35.5551 10.7559 35.5551H29.2362C29.8504 35.5551 30.3465 35.059 30.3465 34.4449V22.4842C31.0945 22.2165 31.8346 21.9173 32.5669 21.5866V36.4921H32.5748C32.5748 37.2008 31.9921 37.7834 31.2835 37.7834ZM20 26.6574C20.6142 26.6574 21.1102 26.1614 21.1102 25.5472V24.311C23.4803 24.2244 25.8268 23.8464 28.1339 23.2008V33.3346H11.8661V23.2008C14.1732 23.8543 16.5118 24.2244 18.8898 24.311V25.5472C18.8898 26.1614 19.3858 26.6574 20 26.6574ZM19.9921 22.1141C14.8425 22.1141 9.80315 20.6732 5.01575 17.8307V11.4842H5.02362C5.02362 9.44485 6.67717 7.79131 8.71654 7.79131H31.2756C33.315 7.79131 34.9685 9.45273 34.9685 11.4842V17.8307C30.1811 20.6732 25.1417 22.1141 19.9921 22.1141ZM37.7795 31.5236C37.7795 32.7204 36.8032 33.6968 35.6063 33.6968H34.8031V26.3346H37.7795V31.5236Z" fill="black" stroke="black" stroke-width="1.5"/>
</svg>
