<svg width="35" height="35" fill="none" xmlns="http://www.w3.org/2000/svg"><path d="M17.5 20.576a3.088 3.088 0 003.083-3.083 3.087 3.087 0 00-3.076-3.083 3.069 3.069 0 00-2.495 1.285 3.084 3.084 0 00-.581 1.798 3.072 3.072 0 003.069 3.083zm6.727-6.843v-2.966h-.383l-2.584.006.013 2.967 2.954-.007z"/><path d="M22.285 17.5a4.79 4.79 0 01-4.785 4.785 4.79 4.79 0 01-4.785-4.785c0-.636.13-1.244.355-1.798h-2.61v7.164c0 .923.752 1.675 1.675 1.675h10.732c.923 0 1.675-.752 1.675-1.675v-7.164H21.93c.232.554.355 1.162.355 1.798z"/><path d="M17.5 0C7.834 0 0 7.834 0 17.5S7.834 35 17.5 35 35 27.166 35 17.5 27.166 0 17.5 0zm8.75 15.702v7.164a3.387 3.387 0 01-3.384 3.384H12.134a3.387 3.387 0 01-3.384-3.384V12.127a3.387 3.387 0 013.384-3.384h10.732a3.387 3.387 0 013.384 3.384v3.575z"/></svg>