<svg width="35" height="35" fill="none" xmlns="http://www.w3.org/2000/svg"><path d="M17.5.7C8.221.7.7 8.221.7 17.5s7.521 16.8 16.8 16.8 16.8-7.521 16.8-16.8S26.779.7 17.5.7zm6.461 18.954s1.486 1.467 1.852 2.148c.01.014.015.027.019.035.148.25.183.444.11.59-.122.24-.543.36-.686.37h-2.625c-.182 0-.564-.047-1.026-.366-.355-.248-.705-.656-1.046-1.053-.51-.591-.95-1.102-1.395-1.102a.536.536 0 00-.166.026c-.336.108-.767.588-.767 1.865 0 .4-.315.628-.537.628h-1.202c-.41 0-2.543-.143-4.433-2.136-2.313-2.441-4.396-7.338-4.413-7.383-.132-.317.14-.487.435-.487h2.652c.353 0 .469.215.55.406.094.222.44 1.106 1.009 2.1.922 1.62 1.488 2.278 1.94 2.278a.526.526 0 00.244-.063c.591-.329.481-2.437.455-2.875 0-.082-.002-.943-.304-1.356-.218-.3-.587-.413-.81-.455a.962.962 0 01.348-.296c.405-.203 1.137-.232 1.863-.232h.405c.787.01.99.06 1.275.133.578.138.59.51.54 1.786-.017.363-.032.772-.032 1.255 0 .105-.006.217-.006.336-.017.65-.038 1.386.42 1.689.06.037.13.057.2.057.16 0 .639 0 1.937-2.227.4-.717.749-1.462 1.041-2.23.027-.045.104-.185.195-.24a.465.465 0 01.217-.05h3.117c.339 0 .572.05.616.182.076.208-.014.843-1.437 2.77l-.635.838c-1.29 1.69-1.29 1.777.08 3.06z"/></svg>