<svg height="23" width="23" version="1.1" id="camera" xmlns="http://www.w3.org/2000/svg" viewBox="0 0 512 512" xml:space="preserve" fill="#5c5c5c"><path d="M256.005 220.786c-35.892 0-64.989 29.35-64.989 65.558 0 36.226 29.097 65.558 64.989 65.558s64.978-29.332 64.978-65.558c0-36.209-29.087-65.558-64.978-65.558z"/><path d="M496.774 135.592c-9.344-9.461-22.509-15.416-36.886-15.416h-56.404c-4.546.018-8.784-2.702-10.736-7.093L375.85 75.257c-8.358-18.741-26.936-30.931-47.557-30.931H183.706c-20.611 0-39.198 12.19-47.575 30.931l-16.88 37.826c-1.952 4.391-6.199 7.111-10.736 7.093H52.112c-14.368 0-27.56 5.954-36.922 15.416C5.828 145.026 0 158.21 0 172.569v242.73c0 14.368 5.828 27.543 15.19 36.976 9.361 9.462 22.554 15.416 36.922 15.398h407.777c14.377.018 27.542-5.937 36.886-15.398 9.407-9.433 15.226-22.608 15.226-36.976v-242.73c-.001-14.359-5.82-27.561-15.227-36.977zM339.463 370.334c-21.28 21.515-50.892 34.89-83.458 34.89-32.585 0-62.187-13.374-83.468-34.89-21.316-21.46-34.528-51.262-34.509-83.991-.018-32.729 13.193-62.504 34.509-84 21.28-21.498 50.874-34.889 83.468-34.862 32.566-.027 62.178 13.364 83.458 34.862 21.316 21.497 34.528 51.271 34.5 84 .027 32.729-13.184 62.531-34.5 83.991zm122.504-155.792h-35.793V178.74h35.793v35.802z"/></svg>