<svg width="35" height="35" viewBox="0 0 35 35" fill="none" xmlns="http://www.w3.org/2000/svg">
    <path d="M17.5 20.5762C19.1953 20.5762 20.583 19.1953 20.583 17.4932C20.583 16.8232 20.3643 16.2012 20.002 15.6953C19.4414 14.9229 18.5323 14.4102 17.5069 14.4102C16.4815 14.4102 15.5723 14.916 15.0117 15.6953C14.6494 16.2012 14.4307 16.8232 14.4307 17.4932C14.4239 19.1953 15.8047 20.5762 17.5 20.5762Z"/>
    <path d="M24.2266 13.7334V11.1494V10.7666H23.8438L21.2598 10.7734L21.2734 13.7402L24.2266 13.7334Z"/>
    <path d="M22.2852 17.5C22.2852 20.1387 20.1387 22.2852 17.5 22.2852C14.8613 22.2852 12.7148 20.1387 12.7148 17.5C12.7148 16.8643 12.8447 16.2559 13.0703 15.7021H10.459V22.8662C10.459 23.7891 11.2109 24.541 12.1338 24.541H22.8662C23.7891 24.541 24.541 23.7891 24.541 22.8662V15.7021H21.9297C22.1621 16.2559 22.2852 16.8643 22.2852 17.5Z"/>
    <path d="M17.5 0C7.83398 0 0 7.83398 0 17.5C0 27.166 7.83398 35 17.5 35C27.166 35 35 27.166 35 17.5C35 7.83398 27.166 0 17.5 0ZM26.25 15.7021V22.8662C26.25 24.7324 24.7324 26.25 22.8662 26.25H12.1338C10.2676 26.25 8.75 24.7324 8.75 22.8662V15.7021V12.127C8.75 10.2607 10.2676 8.74316 12.1338 8.74316H22.8662C24.7324 8.74316 26.25 10.2607 26.25 12.127V15.7021Z"/>
</svg>
